<svg width="183" height="200" viewBox="0 0 183 200" fill="none" xmlns="http://www.w3.org/2000/svg">
<path d="M119.624 17.6317L119.624 17.6318C125.698 27.9831 136.769 34.3755 148.77 34.4596L149.688 34.466C174.176 34.6374 189.444 61.0823 177.348 82.3748L176.895 83.1721C170.967 93.6077 170.967 106.393 176.895 116.828L176.895 116.828L177.348 117.625C189.444 138.918 174.176 165.362 149.689 165.534C149.689 165.534 149.688 165.534 149.688 165.534L148.771 165.54L148.77 165.54C136.769 165.624 125.698 172.017 119.624 182.368L119.624 182.368L119.16 183.159C106.768 204.28 76.2319 204.28 63.8397 183.159L63.3756 182.368L62.5131 182.874L63.3756 182.368C57.3022 172.017 46.2303 165.624 34.2291 165.54L34.2286 165.54L33.3119 165.534C33.3118 165.534 33.3116 165.534 33.3115 165.534C8.82432 165.362 -6.44335 138.918 5.65175 117.625L6.10462 116.828L6.10474 116.828C12.0326 106.393 12.0326 93.6077 6.10474 83.1722L5.23524 83.6661L6.10472 83.1721L5.65172 82.3747C-6.44342 61.0823 8.82451 34.6374 33.3119 34.466L34.229 34.4596C46.2304 34.3755 57.3022 27.9832 63.3756 17.6318L63.8397 16.8407C76.2319 -4.28025 106.768 -4.28022 119.16 16.8407C119.16 16.8407 119.16 16.8407 119.16 16.8407L119.624 17.6317Z" stroke="#ab99ca" stroke-width="1"/>
</svg>
