<svg width="201" height="200" viewBox="0 0 201 200" fill="none" xmlns="http://www.w3.org/2000/svg">
<path d="M19.4714 67.0527L20.0529 66.6777L19.9069 66.0013C17.1919 53.4221 20.7231 39.7697 30.4964 29.9964C40.2698 20.2231 53.9221 16.6919 66.5013 19.4068L67.1777 19.5528L67.5527 18.9713C74.5278 8.15674 86.6785 1 100.5 1C114.321 1 126.472 8.15676 133.448 18.9714L133.823 19.5529L134.499 19.4069C147.078 16.6919 160.73 20.2231 170.504 29.9964C180.277 39.7698 183.808 53.4221 181.093 66.0014L180.948 66.6777L181.529 67.0527C192.344 74.0278 199.5 86.1785 199.5 100C199.5 113.821 192.344 125.972 181.529 132.948L180.948 133.323L181.094 133.999C183.808 146.578 180.277 160.23 170.504 170.004C160.73 179.777 147.078 183.308 134.499 180.594L133.823 180.448L133.448 181.029C126.472 191.844 114.321 199 100.5 199C86.6785 199 74.5279 191.844 67.5527 181.029L67.1777 180.448L66.5014 180.593C53.9221 183.308 40.2698 179.777 30.4964 170.004C20.7231 160.23 17.1919 146.578 19.9069 133.999L20.0529 133.323L19.4714 132.948C8.65675 125.972 1.5 113.821 1.5 100C1.5 86.1785 8.65675 74.0278 19.4714 67.0527ZM71.2484 129.202C87.3288 145.282 113.401 145.282 129.481 129.202C145.562 113.122 145.562 87.0496 129.481 70.9691C113.401 54.8887 87.3288 54.8887 71.2484 70.9691C55.168 87.0496 55.168 113.122 71.2484 129.202Z" stroke="#ab99ca" stroke-width="2" />
</svg>