<svg width="11" height="15" viewBox="0 0 11 15" fill="none" xmlns="http://www.w3.org/2000/svg">
<path d="M10.09 6.25V5H3.55157V1.25C3.55157 0.918479 3.43 0.600537 3.21361 0.366117C2.99722 0.131696 2.70374 0 2.39772 0C2.0917 0 1.79821 0.131696 1.58183 0.366117C1.36544 0.600537 1.24387 0.918479 1.24387 1.25C1.24387 1.58152 1.36544 1.89946 1.58183 2.13388C1.79821 2.3683 2.0917 2.5 2.39772 2.5V5H0.0900269V6.25H2.39772V11.4167C2.39772 13.3833 3.86695 14.975 5.66695 15C7.46695 14.9667 8.89772 13.3667 8.86695 11.4167C8.86695 10.0917 8.29003 8.84167 7.32849 8.01667C7.16197 7.86632 6.98152 7.73506 6.79003 7.625C6.6208 7.54167 6.43618 7.5 6.25157 7.5C5.70541 7.5 5.20541 7.825 4.93618 8.33333C4.79003 8.58333 4.7131 8.875 4.7131 9.16667C4.7208 10.0833 5.40541 10.8333 6.25926 10.8333C6.73618 10.8333 7.18233 10.575 7.47464 10.1667C7.63618 10.5583 7.7131 10.9833 7.7131 11.4167C7.74387 12.6667 6.83618 13.7083 5.66695 13.75C4.49003 13.75 3.54387 12.6917 3.55157 11.4167V6.25H10.09Z" fill="#673AB7"/>
</svg>
