<?xml version="1.0" standalone="no"?><svg xmlns="http://www.w3.org/2000/svg" viewBox="0 0 1440 320">
<defs>
    <filter id="blurFilter">
      <feGaussianBlur in="SourceGraphic" stdDeviation="22" />
    </filter>
  </defs><path filter="url(#blurFilter)" fill="#673ab7" fill-opacity="1" d="M0,32L12,37.3C24,43,48,53,72,48C96,43,120,21,144,32C168,43,192,85,216,106.7C240,128,264,128,288,138.7C312,149,336,171,360,181.3C384,192,408,192,432,176C456,160,480,128,504,133.3C528,139,552,181,576,176C600,171,624,117,648,112C672,107,696,149,720,170.7C744,192,768,192,792,170.7C816,149,840,107,864,85.3C888,64,912,64,936,96C960,128,984,192,1008,218.7C1032,245,1056,235,1080,229.3C1104,224,1128,224,1152,186.7C1176,149,1200,75,1224,80C1248,85,1272,171,1296,181.3C1320,192,1344,128,1368,101.3C1392,75,1416,85,1428,90.7L1440,96L1440,0L1428,0C1416,0,1392,0,1368,0C1344,0,1320,0,1296,0C1272,0,1248,0,1224,0C1200,0,1176,0,1152,0C1128,0,1104,0,1080,0C1056,0,1032,0,1008,0C984,0,960,0,936,0C912,0,888,0,864,0C840,0,816,0,792,0C768,0,744,0,720,0C696,0,672,0,648,0C624,0,600,0,576,0C552,0,528,0,504,0C480,0,456,0,432,0C408,0,384,0,360,0C336,0,312,0,288,0C264,0,240,0,216,0C192,0,168,0,144,0C120,0,96,0,72,0C48,0,24,0,12,0L0,0Z"></path></svg>