<?xml version="1.0" standalone="no"?><svg xmlns="http://www.w3.org/2000/svg" viewBox="0 0 1440 320">
<defs>
    <filter id="blurFilter">
      <feGaussianBlur in="SourceGraphic" stdDeviation="22" />
    </filter>
  </defs>
  <path filter="url(#blurFilter)" fill="#5000ca" fill-opacity="1" d="M0,160L40,165.3C80,171,160,181,240,165.3C320,149,400,107,480,85.3C560,64,640,64,720,90.7C800,117,880,171,960,202.7C1040,235,1120,245,1200,240C1280,235,1360,213,1400,202.7L1440,192L1440,320L1400,320C1360,320,1280,320,1200,320C1120,320,1040,320,960,320C880,320,800,320,720,320C640,320,560,320,480,320C400,320,320,320,240,320C160,320,80,320,40,320L0,320Z"></path></svg>