<svg width="32" height="32" viewBox="0 0 32 32" fill="none" xmlns="http://www.w3.org/2000/svg">
<path d="M17.601 28.7008C20.8286 28.2901 23.7788 26.6658 25.8519 24.1581C27.9249 21.6503 28.9653 18.4473 28.7616 15.2C28.5578 11.9527 27.1252 8.90478 24.755 6.67581C22.3847 4.44684 19.2547 3.20403 16.001 3.2C12.7433 3.19757 9.60729 4.43734 7.23192 6.66668C4.85654 8.89603 3.42056 11.9472 3.21657 15.1985C3.01257 18.4497 4.05592 21.6565 6.13401 24.1652C8.2121 26.674 11.1686 28.296 14.401 28.7008V19.2H11.201V16H14.401V13.3536C14.401 11.2144 14.625 10.4384 15.041 9.656C15.4507 8.88184 16.0841 8.24902 16.8586 7.84C17.4698 7.512 18.2298 7.3152 19.5578 7.2304C20.0842 7.1968 20.7658 7.2384 21.6026 7.3584V10.3984H20.8026C19.3354 10.3984 18.729 10.4672 18.3674 10.6608C18.1517 10.7719 17.976 10.9475 17.865 11.1632C17.673 11.5248 17.6026 11.8832 17.6026 13.352V16H21.6026L20.8026 19.2H17.6026L17.601 28.7008ZM16.001 32C7.16418 32 0.000976562 24.8368 0.000976562 16C0.000976562 7.1632 7.16418 0 16.001 0C24.8378 0 32.001 7.1632 32.001 16C32.001 24.8368 24.8378 32 16.001 32Z" fill="white"/>
</svg>
