<svg xmlns="http://www.w3.org/2000/svg" xmlns:xlink="http://www.w3.org/1999/xlink" width="500" zoomAndPan="magnify" viewBox="0 0 375 374.999991" height="500" preserveAspectRatio="xMidYMid meet" version="1.0"><defs><g/><clipPath id="beed3d4650"><path d="M 89 189 L 138 189 L 138 231.3125 L 89 231.3125 Z M 89 189 " clip-rule="nonzero"/></clipPath><clipPath id="682a4169cf"><path d="M 103 142.8125 L 152 142.8125 L 152 185 L 103 185 Z M 103 142.8125 " clip-rule="nonzero"/></clipPath><clipPath id="759efc90f7"><path d="M 113 156 L 164.722656 156 L 164.722656 199 L 113 199 Z M 113 156 " clip-rule="nonzero"/></clipPath><clipPath id="70db1cd829"><path d="M 76.222656 175 L 128 175 L 128 218 L 76.222656 218 Z M 76.222656 175 " clip-rule="nonzero"/></clipPath></defs><g clip-path="url(#beed3d4650)"><path fill="#6f1ddc" d="M 137.308594 207.007812 C 138.011719 199.632812 137.890625 192.703125 137.761719 189.285156 L 129.808594 203.058594 L 129.820312 203.078125 C 129.820312 203.078125 129.804688 203.085938 129.785156 203.101562 L 129.757812 203.148438 L 129.714844 203.148438 C 128.734375 203.796875 121.164062 208.75 112.195312 212.851562 C 106.558594 215.429688 101.472656 217.171875 97.082031 218.03125 C 94.246094 218.589844 91.691406 218.777344 89.433594 218.597656 C 97.417969 226.457031 108.378906 231.308594 120.46875 231.308594 C 123.789062 231.308594 127.027344 230.941406 130.140625 230.246094 C 131.773438 228.316406 133.171875 225.679688 134.304688 222.363281 C 135.722656 218.234375 136.730469 213.066406 137.308594 207.007812 Z M 137.308594 207.007812 " fill-opacity="1" fill-rule="nonzero"/></g><g clip-path="url(#682a4169cf)"><path fill="#6f1ddc" d="M 111.179688 170.96875 L 111.222656 170.96875 C 112.203125 170.320312 119.773438 165.363281 128.742188 161.265625 C 134.378906 158.6875 139.464844 156.945312 143.855469 156.082031 C 146.691406 155.527344 149.246094 155.339844 151.503906 155.519531 C 143.519531 147.660156 132.558594 142.808594 120.46875 142.808594 C 117.148438 142.808594 113.910156 143.175781 110.796875 143.867188 C 109.160156 145.800781 107.765625 148.4375 106.628906 151.753906 C 105.214844 155.882812 104.207031 161.046875 103.628906 167.109375 C 102.925781 174.484375 103.042969 181.414062 103.171875 184.832031 L 111.128906 171.054688 L 111.117188 171.039062 C 111.117188 171.035156 111.128906 171.027344 111.152344 171.015625 Z M 111.179688 170.96875 " fill-opacity="1" fill-rule="nonzero"/></g><g clip-path="url(#759efc90f7)"><path fill="#6f1ddc" d="M 144.128906 157.421875 C 139.84375 158.261719 134.867188 159.96875 129.328125 162.5 C 122.589844 165.578125 116.648438 169.148438 113.75 170.96875 L 129.660156 170.96875 L 129.667969 170.949219 C 129.671875 170.949219 129.683594 170.957031 129.707031 170.96875 L 129.761719 170.96875 L 129.78125 171.007812 C 130.835938 171.53125 138.910156 175.609375 146.945312 181.328125 C 151.996094 184.921875 156.046875 188.453125 158.988281 191.824219 C 160.894531 194.007812 162.335938 196.132812 163.308594 198.183594 C 164.230469 194.628906 164.722656 190.902344 164.722656 187.058594 C 164.722656 175.496094 160.285156 164.96875 153.023438 157.085938 C 150.535156 156.640625 147.558594 156.75 144.128906 157.421875 Z M 144.128906 157.421875 " fill-opacity="1" fill-rule="nonzero"/></g><path fill="#6f1ddc" d="M 157.960938 192.726562 C 155.09375 189.4375 151.125 185.980469 146.164062 182.449219 C 140.128906 178.152344 134.066406 174.789062 131.042969 173.191406 L 138.996094 186.96875 L 139.015625 186.96875 C 139.019531 186.972656 139.019531 186.984375 139.019531 187.011719 L 139.046875 187.058594 L 139.027344 187.09375 C 139.097656 188.269531 139.601562 197.304688 138.667969 207.117188 C 138.082031 213.289062 137.050781 218.566406 135.601562 222.796875 C 134.660156 225.539062 133.542969 227.851562 132.253906 229.71875 C 146.734375 225.730469 158.242188 214.5625 162.707031 200.28125 C 161.851562 197.898438 160.265625 195.371094 157.960938 192.726562 Z M 157.960938 192.726562 " fill-opacity="1" fill-rule="nonzero"/><g clip-path="url(#70db1cd829)"><path fill="#6f1ddc" d="M 96.8125 216.691406 C 101.09375 215.851562 106.074219 214.144531 111.613281 211.613281 C 118.347656 208.535156 124.292969 204.96875 127.1875 203.144531 L 111.28125 203.144531 L 111.273438 203.164062 C 111.269531 203.164062 111.257812 203.15625 111.234375 203.144531 L 111.179688 203.144531 L 111.15625 203.109375 C 110.105469 202.585938 102.027344 198.503906 93.996094 192.789062 C 88.945312 189.195312 84.890625 185.664062 81.949219 182.289062 C 80.046875 180.105469 78.605469 177.980469 77.628906 175.929688 C 76.710938 179.484375 76.21875 183.214844 76.21875 187.054688 C 76.21875 198.617188 80.652344 209.144531 87.914062 217.027344 C 90.402344 217.476562 93.378906 217.363281 96.8125 216.691406 Z M 96.8125 216.691406 " fill-opacity="1" fill-rule="nonzero"/></g><path fill="#6f1ddc" d="M 82.972656 181.386719 C 85.84375 184.679688 89.8125 188.136719 94.773438 191.667969 C 100.808594 195.960938 106.867188 199.324219 109.894531 200.921875 L 101.941406 187.148438 L 101.917969 187.148438 C 101.917969 187.144531 101.917969 187.132812 101.917969 187.105469 L 101.890625 187.058594 L 101.910156 187.019531 C 101.839844 185.847656 101.332031 176.8125 102.265625 166.996094 C 102.855469 160.828125 103.886719 155.550781 105.335938 151.320312 C 106.273438 148.578125 107.394531 146.265625 108.683594 144.394531 C 94.203125 148.386719 82.695312 159.554688 78.230469 173.832031 C 79.082031 176.21875 80.671875 178.746094 82.972656 181.390625 Z M 82.972656 181.386719 " fill-opacity="1" fill-rule="nonzero"/><g fill="#6f1ddc" fill-opacity="1"><g transform="translate(171.665369, 181.499988)"><g><path d="M 13.390625 0.34375 C 11.242188 0.34375 9.191406 0.0195312 7.234375 -0.625 C 5.273438 -1.269531 3.707031 -2.132812 2.53125 -3.21875 C 2.101562 -3.613281 1.890625 -4.113281 1.890625 -4.71875 C 1.890625 -5.125 2.003906 -5.472656 2.234375 -5.765625 C 2.460938 -6.066406 2.734375 -6.21875 3.046875 -6.21875 C 3.421875 -6.21875 3.820312 -6.0625 4.25 -5.75 C 6.90625 -3.6875 9.9375 -2.65625 13.34375 -2.65625 C 15.8125 -2.65625 17.703125 -3.128906 19.015625 -4.078125 C 20.328125 -5.023438 20.984375 -6.367188 20.984375 -8.109375 C 20.984375 -9.109375 20.664062 -9.914062 20.03125 -10.53125 C 19.40625 -11.144531 18.578125 -11.640625 17.546875 -12.015625 C 16.523438 -12.390625 15.140625 -12.773438 13.390625 -13.171875 C 11.046875 -13.722656 9.117188 -14.296875 7.609375 -14.890625 C 6.109375 -15.492188 4.894531 -16.351562 3.96875 -17.46875 C 3.039062 -18.582031 2.578125 -20.039062 2.578125 -21.84375 C 2.578125 -23.5625 3.039062 -25.085938 3.96875 -26.421875 C 4.894531 -27.753906 6.195312 -28.785156 7.875 -29.515625 C 9.550781 -30.242188 11.460938 -30.609375 13.609375 -30.609375 C 15.609375 -30.609375 17.472656 -30.296875 19.203125 -29.671875 C 20.929688 -29.054688 22.382812 -28.179688 23.5625 -27.046875 C 24.019531 -26.585938 24.25 -26.082031 24.25 -25.53125 C 24.25 -25.132812 24.132812 -24.785156 23.90625 -24.484375 C 23.675781 -24.179688 23.40625 -24.03125 23.09375 -24.03125 C 22.78125 -24.03125 22.363281 -24.191406 21.84375 -24.515625 C 20.445312 -25.648438 19.144531 -26.445312 17.9375 -26.90625 C 16.738281 -27.363281 15.296875 -27.59375 13.609375 -27.59375 C 11.234375 -27.59375 9.382812 -27.097656 8.0625 -26.109375 C 6.75 -25.128906 6.09375 -23.75 6.09375 -21.96875 C 6.09375 -20.457031 6.671875 -19.320312 7.828125 -18.5625 C 8.992188 -17.800781 10.773438 -17.132812 13.171875 -16.5625 C 15.773438 -15.9375 17.820312 -15.359375 19.3125 -14.828125 C 20.800781 -14.296875 22.039062 -13.5 23.03125 -12.4375 C 24.019531 -11.382812 24.515625 -9.972656 24.515625 -8.203125 C 24.515625 -6.515625 24.046875 -5.023438 23.109375 -3.734375 C 22.179688 -2.441406 20.875 -1.4375 19.1875 -0.71875 C 17.5 -0.0078125 15.566406 0.34375 13.390625 0.34375 Z M 13.390625 0.34375 "/></g></g></g><g fill="#6f1ddc" fill-opacity="1"><g transform="translate(198.143368, 181.499988)"><g><path d="M 26.359375 -30.46875 C 26.867188 -30.46875 27.265625 -30.300781 27.546875 -29.96875 C 27.835938 -29.644531 27.984375 -29.210938 27.984375 -28.671875 L 27.984375 -1.59375 C 27.984375 -1.039062 27.832031 -0.597656 27.53125 -0.265625 C 27.226562 0.0546875 26.804688 0.21875 26.265625 0.21875 C 25.722656 0.21875 25.253906 -0.0234375 24.859375 -0.515625 L 7.046875 -24.34375 L 7.046875 -1.59375 C 7.046875 -1.039062 6.894531 -0.597656 6.59375 -0.265625 C 6.289062 0.0546875 5.878906 0.21875 5.359375 0.21875 C 4.847656 0.21875 4.445312 0.0546875 4.15625 -0.265625 C 3.875 -0.597656 3.734375 -1.039062 3.734375 -1.59375 L 3.734375 -28.671875 C 3.734375 -29.210938 3.882812 -29.644531 4.1875 -29.96875 C 4.488281 -30.300781 4.910156 -30.46875 5.453125 -30.46875 C 6.023438 -30.46875 6.507812 -30.226562 6.90625 -29.75 L 24.6875 -5.921875 L 24.6875 -28.671875 C 24.6875 -29.210938 24.832031 -29.644531 25.125 -29.96875 C 25.425781 -30.300781 25.835938 -30.46875 26.359375 -30.46875 Z M 26.359375 -30.46875 "/></g></g></g><g fill="#6f1ddc" fill-opacity="1"><g transform="translate(229.856878, 181.499988)"><g><path d="M 29.78125 -2.015625 C 29.894531 -1.785156 29.953125 -1.539062 29.953125 -1.28125 C 29.953125 -0.851562 29.785156 -0.492188 29.453125 -0.203125 C 29.128906 0.078125 28.738281 0.21875 28.28125 0.21875 C 27.570312 0.21875 27.070312 -0.125 26.78125 -0.8125 L 23.734375 -7.765625 L 7.546875 -7.765625 L 4.46875 -0.8125 C 4.175781 -0.125 3.675781 0.21875 2.96875 0.21875 C 2.507812 0.21875 2.109375 0.0664062 1.765625 -0.234375 C 1.421875 -0.535156 1.25 -0.898438 1.25 -1.328125 C 1.25 -1.554688 1.304688 -1.785156 1.421875 -2.015625 L 13.6875 -29.3125 C 13.863281 -29.71875 14.125 -30.019531 14.46875 -30.21875 C 14.8125 -30.414062 15.179688 -30.515625 15.578125 -30.515625 C 16.003906 -30.515625 16.390625 -30.40625 16.734375 -30.1875 C 17.078125 -29.976562 17.335938 -29.6875 17.515625 -29.3125 Z M 8.84375 -10.6875 L 22.453125 -10.6875 L 15.625 -26.09375 Z M 8.84375 -10.6875 "/></g></g></g><g fill="#6f1ddc" fill-opacity="1"><g transform="translate(261.055416, 181.499988)"><g><path d="M 5.5 0.21875 C 4.945312 0.21875 4.515625 0.0546875 4.203125 -0.265625 C 3.890625 -0.597656 3.734375 -1.039062 3.734375 -1.59375 L 3.734375 -28.546875 C 3.734375 -29.054688 3.894531 -29.46875 4.21875 -29.78125 C 4.550781 -30.101562 4.988281 -30.265625 5.53125 -30.265625 L 15.703125 -30.265625 C 18.878906 -30.265625 21.347656 -29.488281 23.109375 -27.9375 C 24.867188 -26.394531 25.75 -24.207031 25.75 -21.375 C 25.75 -18.539062 24.863281 -16.335938 23.09375 -14.765625 C 21.320312 -13.191406 18.859375 -12.40625 15.703125 -12.40625 L 7.25 -12.40625 L 7.25 -1.59375 C 7.25 -1.039062 7.09375 -0.597656 6.78125 -0.265625 C 6.46875 0.0546875 6.039062 0.21875 5.5 0.21875 Z M 15.359375 -15.328125 C 19.972656 -15.328125 22.28125 -17.34375 22.28125 -21.375 C 22.28125 -25.351562 19.972656 -27.34375 15.359375 -27.34375 L 7.25 -27.34375 L 7.25 -15.328125 Z M 15.359375 -15.328125 "/></g></g></g><g fill="#6f1ddc" fill-opacity="1"><g transform="translate(171.665369, 219.749986)"><g><path d="M 5.53125 0 C 4.988281 0 4.550781 -0.15625 4.21875 -0.46875 C 3.894531 -0.78125 3.734375 -1.195312 3.734375 -1.71875 L 3.734375 -28.546875 C 3.734375 -29.054688 3.894531 -29.46875 4.21875 -29.78125 C 4.550781 -30.101562 4.988281 -30.265625 5.53125 -30.265625 L 13.90625 -30.265625 C 18.738281 -30.265625 22.476562 -28.953125 25.125 -26.328125 C 27.769531 -23.710938 29.09375 -19.988281 29.09375 -15.15625 C 29.09375 -10.3125 27.765625 -6.570312 25.109375 -3.9375 C 22.453125 -1.3125 18.71875 0 13.90625 0 Z M 13.6875 -3 C 21.53125 -3 25.453125 -7.050781 25.453125 -15.15625 C 25.453125 -23.21875 21.53125 -27.25 13.6875 -27.25 L 7.25 -27.25 L 7.25 -3 Z M 13.6875 -3 "/></g></g></g><g fill="#6f1ddc" fill-opacity="1"><g transform="translate(203.378879, 219.749986)"><g><path d="M 26.828125 -2.1875 C 27.023438 -1.875 27.125 -1.546875 27.125 -1.203125 C 27.125 -0.773438 26.957031 -0.425781 26.625 -0.15625 C 26.300781 0.113281 25.925781 0.25 25.5 0.25 C 24.84375 0.25 24.328125 -0.03125 23.953125 -0.59375 L 18.203125 -9.703125 C 17.453125 -10.867188 16.675781 -11.675781 15.875 -12.125 C 15.070312 -12.570312 13.988281 -12.796875 12.625 -12.796875 L 7.203125 -12.796875 L 7.203125 -1.59375 C 7.203125 -1.039062 7.046875 -0.597656 6.734375 -0.265625 C 6.421875 0.0546875 6.007812 0.21875 5.5 0.21875 C 4.945312 0.21875 4.515625 0.0546875 4.203125 -0.265625 C 3.890625 -0.597656 3.734375 -1.039062 3.734375 -1.59375 L 3.734375 -28.546875 C 3.734375 -29.054688 3.894531 -29.46875 4.21875 -29.78125 C 4.550781 -30.101562 4.988281 -30.265625 5.53125 -30.265625 L 16.1875 -30.265625 C 19.476562 -30.265625 21.988281 -29.53125 23.71875 -28.0625 C 25.445312 -26.601562 26.3125 -24.457031 26.3125 -21.625 C 26.3125 -19.226562 25.613281 -17.300781 24.21875 -15.84375 C 22.832031 -14.382812 20.851562 -13.492188 18.28125 -13.171875 C 19 -12.941406 19.644531 -12.566406 20.21875 -12.046875 C 20.789062 -11.535156 21.363281 -10.828125 21.9375 -9.921875 Z M 15.875 -15.703125 C 18.226562 -15.703125 19.984375 -16.1875 21.140625 -17.15625 C 22.296875 -18.132812 22.875 -19.613281 22.875 -21.59375 C 22.875 -23.539062 22.300781 -24.984375 21.15625 -25.921875 C 20.007812 -26.867188 18.25 -27.34375 15.875 -27.34375 L 7.203125 -27.34375 L 7.203125 -15.703125 Z M 15.875 -15.703125 "/></g></g></g><g fill="#6f1ddc" fill-opacity="1"><g transform="translate(232.817945, 219.749986)"><g><path d="M 16.390625 0.34375 C 13.585938 0.34375 11.148438 -0.285156 9.078125 -1.546875 C 7.003906 -2.804688 5.410156 -4.59375 4.296875 -6.90625 C 3.179688 -9.226562 2.625 -11.960938 2.625 -15.109375 C 2.625 -18.285156 3.171875 -21.039062 4.265625 -23.375 C 5.367188 -25.707031 6.957031 -27.492188 9.03125 -28.734375 C 11.101562 -29.984375 13.554688 -30.609375 16.390625 -30.609375 C 19.222656 -30.609375 21.675781 -29.984375 23.75 -28.734375 C 25.832031 -27.492188 27.421875 -25.707031 28.515625 -23.375 C 29.617188 -21.039062 30.171875 -18.300781 30.171875 -15.15625 C 30.171875 -12.007812 29.613281 -9.269531 28.5 -6.9375 C 27.382812 -4.601562 25.789062 -2.804688 23.71875 -1.546875 C 21.644531 -0.285156 19.203125 0.34375 16.390625 0.34375 Z M 16.390625 -2.65625 C 19.597656 -2.65625 22.09375 -3.734375 23.875 -5.890625 C 25.664062 -8.054688 26.5625 -11.144531 26.5625 -15.15625 C 26.5625 -19.15625 25.675781 -22.226562 23.90625 -24.375 C 22.132812 -26.519531 19.628906 -27.59375 16.390625 -27.59375 C 13.191406 -27.59375 10.695312 -26.515625 8.90625 -24.359375 C 7.113281 -22.203125 6.21875 -19.132812 6.21875 -15.15625 C 6.21875 -11.175781 7.113281 -8.097656 8.90625 -5.921875 C 10.695312 -3.742188 13.191406 -2.65625 16.390625 -2.65625 Z M 16.390625 -2.65625 "/></g></g></g><g fill="#6f1ddc" fill-opacity="1"><g transform="translate(265.604305, 219.749986)"><g><path d="M 5.5 0.21875 C 4.945312 0.21875 4.515625 0.0546875 4.203125 -0.265625 C 3.890625 -0.597656 3.734375 -1.039062 3.734375 -1.59375 L 3.734375 -28.546875 C 3.734375 -29.054688 3.894531 -29.46875 4.21875 -29.78125 C 4.550781 -30.101562 4.988281 -30.265625 5.53125 -30.265625 L 15.703125 -30.265625 C 18.878906 -30.265625 21.347656 -29.488281 23.109375 -27.9375 C 24.867188 -26.394531 25.75 -24.207031 25.75 -21.375 C 25.75 -18.539062 24.863281 -16.335938 23.09375 -14.765625 C 21.320312 -13.191406 18.859375 -12.40625 15.703125 -12.40625 L 7.25 -12.40625 L 7.25 -1.59375 C 7.25 -1.039062 7.09375 -0.597656 6.78125 -0.265625 C 6.46875 0.0546875 6.039062 0.21875 5.5 0.21875 Z M 15.359375 -15.328125 C 19.972656 -15.328125 22.28125 -17.34375 22.28125 -21.375 C 22.28125 -25.351562 19.972656 -27.34375 15.359375 -27.34375 L 7.25 -27.34375 L 7.25 -15.328125 Z M 15.359375 -15.328125 "/></g></g></g></svg>